#!OML:ASF F:\VICON\USERDATA\INSTALL\rory3\rory3.ASF
:FULLY-SPECIFIED
:DEGREES
3287
root 7.98909 17.9419 -3.75293 8.98627 -43.2161 17.1939
lowerback 16.3436 -1.20268 2.66876
upperback 4.73314 -1.00472 5.7186
thorax -4.04494 -0.577396 4.76058
lowerneck -11.4973 -9.62761 -9.95345
upperneck 31.4426 -14.3159 6.788
head 13.8353 -6.62794 2.08986
rclavicle 9.54166e-015 -7.95139e-014
rhumerus 25.3825 -3.56836 -64.879
rradius 33.2582
rwrist -33.1744
rhand -38.7572 -26.5413
rfingers 7.12502
rthumb -11.7695 -56.1907
lclavicle 9.54166e-015 -7.95139e-014
lhumerus 21.8757 -53.6073 82.7866
lradius 57.5354
lwrist 21.8818
lhand -9.16272 48.6065
lfingers 7.12502
lthumb 16.7898 -1722.1
rfemur -41.7709 -2.80071 5.43772
rtibia 40.2941
rfoot -18.083 -9.87292
rtoes 2.78142
lfemur -19.6747 4.56617 -25.7205
ltibia 24.4389
lfoot -7.19975 3.90649
ltoes -18.0732
3288
root 8.01093 17.9359 -3.73409 8.91866 -43.2714 17.3182
lowerback 16.3999 -1.1543 2.36561
upperback 4.68882 -0.98433 5.65107
thorax -4.12035 -0.564502 4.86018
lowerneck -11.492 -9.58928 -9.95255
upperneck 31.4508 -14.2511 6.76107
head 13.8278 -6.60449 2.09111
rclavicle 2.8625e-014 -4.77083e-014
rhumerus 25.381 -3.11871 -64.5639
rradius 33.2956
rwrist -33.4396
rhand -38.8606 -26.669
rfingers 7.12502
rthumb -11.8693 -56.3126
lclavicle 2.8625e-014 -4.77083e-014
lhumerus 21.6251 -53.5022 82.7935
lradius 57.7779
lwrist 21.7952
lhand -7.62241 48.3956
lfingers 7.12502
lthumb 18.2721 -1722.44
rfemur -41.8229 -2.88308 5.26881
rtibia 40.3209
rfoot -18.0347 -9.89868
rtoes 2.2319
lfemur -19.8258 4.71242 -25.7438
ltibia 24.2075
lfoot -7.20764 4.29323
ltoes -17.4945
3289
root 8.03238 17.9324 -3.71242 8.99197 -43.3058 17.2132
lowerback 16.3504 -1.09999 2.29957
upperback 4.73719 -0.932795 5.59413
thorax -4.04601 -0.539597 4.82304
lowerneck -11.585 -9.56725 -9.82481
upperneck 31.4379 -14.2175 6.70913
head 13.8213 -6.57893 2.05198
rclavicle -4.13472e-014 -2.8625e-014
rhumerus 25.452 -3.08731 -64.6177
rradius 33.2737
rwrist -33.4766
rhand -38.7735 -26.5057
rfingers 7.12502
rthumb -11.7852 -56.1541
lclavicle -4.13472e-014 -2.8625e-014
lhumerus 21.605 -53.5595 82.51
lradius 57.9573
lwrist 22.0434
lhand -8.33831 48.3362
lfingers 7.12502
lthumb 17.5833 -1722.44
rfemur -41.8407 -2.93278 5.279
rtibia 40.3285
rfoot -18.0062 -9.94978
rtoes 1.66304
lfemur -19.9232 4.78576 -25.5694
ltibia 23.924
lfoot -7.18514 4.6559
ltoes -17.5174
3290
root 8.05404 17.9288 -3.68605 9.14706 -43.2108 16.9608
lowerback 16.1841 -1.12367 2.51109
upperback 4.85391 -0.953179 5.49851
thorax -3.83662 -0.551848 4.59372
lowerneck -11.7322 -9.53006 -9.6424
upperneck 31.3969 -14.1891 6.72827
head 13.8167 -6.53924 2.02846
rclavicle -6.52014e-014 4.77083e-014
rhumerus 25.5478 -3.18828 -64.9838
rradius 33.2567
rwrist -33.3745
rhand -38.8665 -26.5548
rfingers 7.12502
rthumb -11.8749 -56.1981
lclavicle -6.52014e-014 4.77083e-014
lhumerus 21.4891 -53.5413 82.2788
lradius 58.0636
lwrist 22.183
lhand -8.99913 49.2127
lfingers 7.12502
lthumb 16.9473 -1721.51
rfemur -41.7686 -3.07507 5.40309
rtibia 40.3201
rfoot -18.0506 -9.91004
rtoes 1.76226
lfemur -20.0095 4.70875 -25.2496
ltibia 23.6047
lfoot -7.13138 4.95867
ltoes -17.2195
3291
root 8.07736 17.9253 -3.66471 9.21489 -43.105 16.8377
lowerback 16.2535 -1.11112 2.36626
upperback 4.84098 -0.951992 5.55377
thorax -3.88428 -0.551055 4.73869
lowerneck -11.7786 -9.51925 -9.60452
upperneck 31.3615 -14.1288 6.60597
head 13.7894 -6.52295 1.98311
rclavicle 1.59028e-014 -4.92986e-014
rhumerus 25.4954 -2.98409 -65.1461
rradius 33.2941
rwrist -33.3998
rhand -39.0364 -26.8801
rfingers 7.12502
rthumb -12.0387 -56.5139
lclavicle 1.59028e-014 -4.92986e-014
lhumerus 20.8268 -53.355 82.6806
lradius 58.1412
lwrist 22.0861
lhand -8.01784 48.9769
lfingers 7.12502
lthumb 17.8917 -1721.83
rfemur -41.6932 -3.16977 5.3981
rtibia 40.29
rfoot -18.1642 -9.90048
rtoes 2.27222
lfemur -20.1544 4.70075 -25.0363
ltibia 23.2793
lfoot -7.25975 5.15298
ltoes -17.5544
3292
root 8.10302 17.9252 -3.6447 9.26961 -42.9455 16.8176
lowerback 16.2031 -1.14055 2.24502
upperback 4.85581 -1.01373 5.5171
thorax -3.83644 -0.580855 4.77799
lowerneck -11.8443 -9.49983 -9.61514
upperneck 31.3115 -14.1001 6.66189
head 13.785 -6.50366 2.00847
rclavicle -6.20208e-014 1.43125e-014
rhumerus 25.4557 -2.94561 -65.6492
rradius 33.2458
rwrist -33.2345
rhand -38.8971 -26.7008
rfingers 7.12502
rthumb -11.9044 -56.3423
lclavicle -6.20208e-014 1.43125e-014
lhumerus 20.2711 -53.3112 82.7344
lradius 58.1711
lwrist 22.2937
lhand -8.13676 48.3898
lfingers 7.12502
lthumb 17.7772 -1722.4
rfemur -41.6676 -3.32987 5.32131
rtibia 40.2648
rfoot -18.2071 -9.98012
rtoes 2.23856
lfemur -20.365 4.69504 -24.9242
ltibia 22.8931
lfoot -7.51264 5.25811
ltoes -18.6059
3293
root 8.12871 17.9249 -3.61994 9.41272 -42.7451 16.6795
lowerback 16.1324 -1.16943 2.26587
upperback 4.81594 -1.04802 5.51354
thorax -3.83919 -0.596631 4.76718
lowerneck -11.86 -9.49008 -9.63572
upperneck 31.3737 -14.0856 6.65833
head 13.8158 -6.49912 2.01205
rclavicle 7.63333e-014 2.54444e-014
rhumerus 25.1331 -2.70659 -65.9749
rradius 33.3517
rwrist -33.3172
rhand -38.8185 -26.3777
rfingers 7.12502
rthumb -11.8286 -56.0236
lclavicle 7.63333e-014 2.54444e-014
lhumerus 19.5411 -53.5364 82.8956
lradius 58.2622
lwrist 23.3801
lhand -6.44218 48.3738
lfingers 7.12502
lthumb 19.4072 -1722.57
rfemur -41.6191 -3.5151 5.32406
rtibia 40.2365
rfoot -18.2477 -10.003
rtoes 2.37254
lfemur -20.5363 4.53105 -24.691
ltibia 22.4485
lfoot -7.57711 5.39251
ltoes -18.9366
3294
root 8.15009 17.9225 -3.59213 9.50615 -42.6294 16.4669
lowerback 16.1343 -1.15718 2.22144
upperback 4.81149 -1.03386 5.64483
thorax -3.84224 -0.590794 4.93182
lowerneck -11.8121 -9.48434 -9.90721
upperneck 31.315 -13.9989 6.64583
head 13.7947 -6.49632 2.068
rclavicle -2.70347e-014 -3.18055e-014
rhumerus 24.7711 -2.11676 -66.0105
rradius 33.603
rwrist -33.646
rhand -38.8999 -26.4275
rfingers 7.12502
rthumb -11.9071 -56.0689
lclavicle -2.70347e-014 -3.18055e-014
lhumerus 18.4783 -53.1352 83.6951
lradius 58.0791
lwrist 22.4702
lhand -8.08383 48.4879
lfingers 7.12502
lthumb 17.8282 -1722.31
rfemur -41.4739 -3.55379 5.35506
rtibia 40.1962
rfoot -18.2725 -10.0742
rtoes 2.25347
lfemur -20.5546 4.32496 -24.3508
ltibia 21.9789
lfoot -7.61556 5.61867
ltoes -18.219
3295
root 8.16975 17.9214 -3.56414 9.61994 -42.5664 16.1689
lowerback 16.1548 -1.19751 2.11299
upperback 4.87077 -1.09947 5.89562
thorax -3.77762 -0.627225 5.27709
lowerneck -11.8972 -9.39051 -10.4544
upperneck 31.2394 -13.7185 6.69544
head 13.8049 -6.43058 2.22024
rclavicle 3.65764e-014 -1.74931e-014
rhumerus 24.5347 -1.15642 -65.9858
rradius 33.9574
rwrist -34.2069
rhand -38.7801 -26.7271
rfingers 7.12502
rthumb -11.7916 -56.3752
lclavicle 3.65764e-014 -1.74931e-014
lhumerus 17.3107 -52.6707 84.5431
lradius 58.018
lwrist 23.1301
lhand -4.42336 47.9551
lfingers 7.12502
lthumb 21.3474 -1723.2
rfemur -41.2965 -3.58505 5.46908
rtibia 40.1485
rfoot -18.2868 -10.0357
rtoes 2.42545
lfemur -20.5478 4.06166 -23.9104
ltibia 21.5157
lfoot -7.75707 5.97751
ltoes -17.603
3296
root 8.19367 17.9194 -3.5338 9.76193 -42.4502 15.911
lowerback 16.1417 -1.08824 2.28934
upperback 4.83825 -0.928655 5.84166
thorax -3.82199 -0.541915 5.08524
lowerneck -11.713 -9.46795 -10.2401
upperneck 31.1125 -13.8964 6.73014
head 13.7129 -6.48481 2.17698
rclavicle 3.18055e-015 3.49861e-014
rhumerus 23.691 -0.955388 -66.2695
rradius 34.4642
rwrist -34.9563
rhand -38.6724 -26.7453
rfingers 7.12502
rthumb -11.6878 -56.3993
lclavicle 3.18055e-015 3.49861e-014
lhumerus 16.1496 -52.9017 85.0476
lradius 57.8824
lwrist 23.1187
lhand -2.46547 47.6585
lfingers 7.12502
lthumb 23.2269 -1723.72
rfemur -41.161 -3.71114 5.56024
rtibia 40.1029
rfoot -18.2869 -10.0011
rtoes 2.3066
lfemur -20.6158 3.75081 -23.5242
ltibia 21.042
lfoot -7.84825 6.33086
ltoes -17.2094
